<?xml version="1.0" encoding="utf-8"?>
<!-- Generator: Adobe Illustrator 16.0.0, SVG Export Plug-In . SVG Version: 6.00 Build 0)  -->
<!DOCTYPE svg PUBLIC "-//W3C//DTD SVG 1.1//EN" "http://www.w3.org/Graphics/SVG/1.1/DTD/svg11.dtd">
<svg version="1.1" id="图层_1" xmlns="http://www.w3.org/2000/svg" xmlns:xlink="http://www.w3.org/1999/xlink" x="0px" y="0px"
	 width="208px" height="370px" viewBox="0 0 208 370" enable-background="new 0 0 208 208" xml:space="preserve">
<path fill-rule="evenodd" clip-rule="evenodd" fill="#171717" d="M128.262,168.314c-0.969-0.495-0.545-1.25-0.371-2.013
	c-0.289-0.038-0.523-0.117-0.746-0.088c-0.7,0.091-1.412,0.156-2.083,0.357c-0.621,0.185-1.298,0.322-1.605,1.09
	c-0.124,0.312-0.593,0.507-0.937,0.7c-1.086,0.616-2.201,1.182-3.271,1.82c-0.428,0.255-0.72,0.741-1.154,0.97
	c-2.12,1.121-4.251,2.229-6.416,3.261c-1.208,0.577-2.52,0.677-3.878,0.755c-1.378,0.08-2.894-0.055-4.13,0.895
	c-0.237,0.182-0.539,0.316-0.831,0.378c-0.646,0.14-0.877,0.413-0.48,1.022c0.063,0.099,0.124,0.254,0.089,0.351
	c-0.411,1.14,0.365,1.847,0.973,2.604c-1.275,0.886-1.694,2.546-1.307,4.041c0.243,0.932,0.136,1.956,0.179,2.938
	c0.007,0.152-0.039,0.307-0.02,0.454c0.181,1.427,0.4,2.848,0.552,4.276c0.14,1.298-0.806,2.909-1.955,3.521
	c-0.541,0.288-1.063,0.621-1.564,0.974c-0.812,0.573-0.776,1.335,0.03,1.91c1.802,1.289,3.856,1.446,5.974,1.43
	c2.289-0.016,4.584-0.054,6.865,0.091c1.596,0.103,3.139,0.049,4.646-0.457c0.426-0.144,0.789-0.458,1.191-0.678
	c0.362-0.195,0.734-0.363,1.281-0.632c0.041-0.909,1.449-1.579,1.05-2.878c0.614-0.919,1.225-1.831,1.851-2.768
	c0.918,0.025,1.059,0.21,0.936,1.145c-0.066,0.489-0.021,0.993-0.103,1.48c-0.041,0.249-0.196,0.529-0.387,0.7
	c-1.099,0.984-1.734,2.24-2.104,3.629c-0.388,1.453-1.447,2.194-2.748,2.605c-1.628,0.516-3.298,0.688-5.032,0.579
	c-2.057-0.131-4.131,0.062-6.188-0.05c-1.678-0.093-3.353-0.366-5.009-0.67c-1.234-0.226-2.476-0.528-3.642-0.982
	c-0.673-0.263-1.196-0.899-1.799-1.353c-0.983-0.735-2.457-0.501-3.445,0.257c-0.591,0.454-1.289,1.099-2.226,0.733
	c-0.085-0.033-0.203-0.094-0.265-0.062c-1.1,0.58-2.228-0.03-3.342,0.079c-0.537,0.052-1.092-0.091-1.64-0.094
	c-0.757-0.003-1.516,0.064-2.273,0.063c-0.889-0.002-1.78-0.017-2.665-0.082c-1.262-0.094-2.537-0.146-3.771-0.39
	c-1.223-0.246-2.448-0.606-3.58-1.118c-0.545-0.246-0.896-0.944-1.305-1.465c-0.419-0.528-0.873-1.052-1.179-1.646
	c-0.227-0.439-0.33-0.99-0.329-1.491c0.004-1.773-0.469-3.42-0.926-5.121c-0.316-1.172-0.825-2.339-0.841-3.691
	c-0.015-1.211,0.311-2.699-0.715-3.812c-0.087-0.094-0.068-0.293-0.084-0.443c-0.161-1.596-0.357-3.188-0.468-4.786
	c-0.157-2.26-0.251-4.521-0.374-6.78c-0.105-1.934-0.262-3.867-0.301-5.801c-0.018-0.849,0.213-1.701,0.307-2.554
	c0.107-0.976-0.353-1.958,0.018-2.938c0.176-0.467,0.327-0.941,0.492-1.415c0.05-0.142,0.184-0.3,0.152-0.419
	c-0.261-0.958-0.597-1.898-0.819-2.866c-0.197-0.869-0.51-1.613-1.301-2.105c-1.438-0.897-2.889-1.776-4.277-2.743
	c-1.527-1.066-3.285-1.925-4.208-3.639c-0.594-1.104-1.35-2.056-2.06-3.064c-0.727-1.034-1.306-2.24-1.657-3.454
	c-0.64-2.224-1.105-4.499-1.558-6.771c-0.166-0.835-0.088-1.719-0.124-2.581c-0.005-0.12,0.02-0.274-0.044-0.352
	c-1.099-1.355-0.262-2.715,0.015-4.048c0.242-1.167,0.544-2.333,0.948-3.455c0.589-1.635,1.228-3.261,1.991-4.821
	c0.203-0.416,0.91-0.654,1.436-0.818c0.458-0.144,0.593-0.236,0.611-0.782c0.028-0.814-0.049-1.839,1.14-2.079
	c0.058-0.013,0.123-0.05,0.156-0.097c1.111-1.56,2.743-2.417,4.376-3.282c0.372-0.196,0.767-0.434,1.022-0.756
	c1.081-1.359,2.611-1.819,4.172-2.353c2.054-0.7,4.016-1.663,6.045-2.443c1.537-0.591,3.148-0.996,4.666-1.627
	c1.101-0.457,2.417-0.473,3.264-1.501c0.141-0.169,0.411-0.238,0.629-0.334c0.505-0.223,0.953-0.388,1.083-1.097
	c0.094-0.51,0.596-0.962,0.961-1.401c0.99-1.187,0.894-1.686-0.357-2.585c-1.45-1.043-2.823-2.196-4.276-3.237
	c-0.582-0.416-1.336-0.589-1.934-0.99c-1.34-0.899-2.745-1.752-3.916-2.848c-1.503-1.404-2.786-3.046-4.196-4.554
	c-0.89-0.952-1.965-1.757-2.73-2.794c-0.8-1.084-1.843-2.061-1.993-3.578c-0.051-0.518-0.592-1.014-0.975-1.465
	c-0.861-1.017-1.278-2.208-1.557-3.483c-0.418-1.907-0.888-3.803-1.335-5.703c-0.05-0.209-0.117-0.417-0.141-0.628
	c-0.126-1.065-0.285-2.13-0.34-3.199c-0.032-0.635,0.1-1.28,0.167-1.919c0.032-0.305,0.193-0.638,0.114-0.906
	c-0.497-1.687,0.188-3.342,0.096-5.02c-0.03-0.568,0.265-1.153,0.411-1.732c0.298-1.178,0.618-2.353,0.889-3.538
	c0.189-0.831,0.302-1.68,0.47-2.518c0.137-0.678,0.193-1.405,0.492-2.008c0.285-0.576,0.867-0.999,1.258-1.532
	c0.211-0.288,0.515-0.777,0.407-0.983c-0.537-1.031-0.105-1.932,0.231-2.848c0.354-0.963,0.706-1.934,1.159-2.852
	c0.321-0.652,0.815-1.22,1.225-1.829c0.219-0.328,0.433-0.66,0.628-1.003c0.387-0.679,0.854-1.332,1.111-2.059
	c0.292-0.829,0.428-1.72,0.563-2.595c0.129-0.829,0.309-1.631,0.089-2.524c-0.179-0.723,0.048-1.555,0.13-2.334
	c0.234-2.223,0.424-4.454,0.756-6.663c0.181-1.204,0.525-2.402,0.96-3.539c0.358-0.936,0.987-1.766,1.445-2.668
	c0.397-0.783,0.662-1.638,1.101-2.394C74.138,9.14,74.62,8.58,75.13,8.084c0.661-0.642,1.332-1.339,2.132-1.752
	c0.904-0.464,1.939-0.744,2.947-0.917c2.238-0.382,4.497-0.12,6.653,0.42c1.415,0.354,2.701,1.261,4.015,1.976
	c1.018,0.554,2.111,1.06,2.95,1.828c0.991,0.909,1.766,2.061,2.594,3.138c0.682,0.886,1.304,1.816,1.95,2.728
	c0.068,0.095,0.179,0.208,0.167,0.3c-0.14,1.176,0.719,1.542,1.546,1.939c1.564,0.749,3.222,1.14,4.926,1.439
	c1.702,0.299,3.399,0.693,5.051,1.205c1.563,0.484,3.105,1.086,4.579,1.799c1.41,0.68,2.71,1.59,4.082,2.355
	c0.717,0.398,1.522,0.642,2.226,1.061c1.339,0.794,2.584,1.761,3.962,2.473c1.209,0.626,2.469,0.659,3.861,0.114
	c1.859-0.73,3.855-1.106,5.791-1.64c0.999-0.274,1.983-0.601,2.991-0.832c1.552-0.356,3.103-0.822,4.676-0.932
	c2.39-0.164,4.815-0.251,7.189-0.025c3.03,0.287,5.62,1.705,7.171,4.402c0.941,1.64,1.676,3.481,1.146,5.509
	c-0.059,0.232-0.085,0.516-0.009,0.735c0.683,1.96-0.158,3.886-0.112,5.829c0.006,0.3-0.011,0.675-0.176,0.895
	c-1.089,1.436-1.282,3.238-2.033,4.803c-0.547,1.133-1.259,2.185-1.879,3.284c-0.452,0.801-0.851,1.633-1.311,2.431
	c-0.381,0.66-0.754,1.342-1.244,1.919c-0.885,1.046-1.189,2.292-1.489,3.572c-0.234,1.012-0.604,1.992-0.872,2.999
	c-0.217,0.827-0.34,1.68-0.553,2.508c-0.315,1.208-0.656,2.41-1.021,3.605c-0.346,1.134-0.677,2.281-1.123,3.375
	c-0.488,1.186-1.117,2.313-1.662,3.475c-0.365,0.78-0.599,1.639-1.061,2.352c-0.873,1.35-1.867,2.62-2.814,3.921
	c-0.034,0.047-0.119,0.058-0.148,0.106c-0.871,1.366-2.329,2.281-2.93,3.865c-0.144,0.374-0.516,0.669-0.807,0.978
	c-1.379,1.463-2.939,2.795-4.088,4.419c-0.792,1.122-1.922,1.35-2.914,1.961c-0.727,0.447-1.398,0.988-2.146,1.394
	c-0.993,0.54-2.051,0.964-3.053,1.49c-0.541,0.284-0.988,0.766-1.543,1.003c-1.278,0.546-2.639,0.914-3.889,1.518
	c-0.791,0.382-1.51,0.99-2.131,1.626c-0.455,0.464-0.316,1.099,0.153,1.587c1.277,1.324,2.45,2.786,4.143,3.617
	c2.333,1.146,4.687,2.254,7.055,3.326c1.733,0.786,3.37,1.703,4.854,2.909c0.563,0.455,1.274,0.719,1.896,1.108
	c0.514,0.318,1.031,0.646,1.476,1.048c0.958,0.858,1.882,1.753,2.795,2.658c1.019,1.01,1.488,2.347,2.099,3.601
	c0.251,0.51,0.559,0.993,0.859,1.476c0.854,1.36,1.156,2.805,1.002,4.433c-0.061,0.624,0.558,1.295,0.783,1.972
	c0.264,0.795,0.467,1.614,0.631,2.436c0.105,0.523-0.027,1.11,0.154,1.59c0.555,1.468-0.234,2.9-0.01,4.346
	c-1.316,0.996-0.814,2.709-1.555,3.978c-0.564,0.967-0.658,2.21-0.961,3.329c-0.039,0.148-0.032,0.336-0.121,0.438
	c-1.023,1.182-2.059,2.35-3.094,3.519c-0.059,0.065-0.217,0.098-0.221,0.152c-0.094,1.516-1.678,1.469-2.406,2.314
	c-0.416,0.479-0.771,1.026-1.251,1.434c-0.691,0.586-1.444,1.112-2.218,1.587c-0.946,0.583-1.666,2.169-1.672,3.334
	c-0.006,1.114-0.289,2.227-0.396,3.346c-0.229,2.406-1.502,4.714-0.699,7.222c0.033,0.105,0.04,0.265-0.016,0.347
	C129.441,166.665,128.858,167.477,128.262,168.314z M75.646,21.24c0.918-0.773,1.771-1.532,2.669-2.23
	c0.35-0.273,0.787-0.512,1.216-0.595c1.61-0.304,3.187,0.063,4.707,0.507c1.337,0.392,2.646,0.876,3.909,1.564
	c1.011,0.553,1.577,1.349,2.201,2.156c0.295,0.382,0.173,0.919-0.451,0.915c-1.004-0.007-2.03-0.01-3.007-0.209
	c-1.3-0.269-2.542-0.902-3.847-1.054c-1.496-0.173-2.046,0.105-2.616,1.494c-0.384,0.934-1.009,1.714-1.998,2.013
	c-1.459,0.44-2.696-0.337-3.98-0.861c-0.26-0.106-0.869,0.009-0.936,0.175c-0.22,0.555-0.345,1.176-0.367,1.776
	c-0.069,1.916-0.063,3.834-0.12,5.749c-0.011,0.38-0.081,1.009-0.29,1.088c-0.792,0.303-0.842,1.023-1.075,1.617
	c-0.377,0.96-0.548,2.001-1.361,2.758c-0.173,0.161-0.163,0.513-0.251,0.772c-0.087,0.253-0.175,0.51-0.295,0.75
	c-0.746,1.481-1.503,2.957-2.252,4.438c-0.039,0.077-0.021,0.184-0.044,0.273c-0.146,0.575-0.275,1.157-0.449,1.725
	c-0.691,2.244-1.414,4.48-2.091,6.73c-0.289,0.958-0.552,1.928-0.722,2.911c-0.184,1.057-0.269,2.132-0.347,3.203
	c-0.036,0.502-0.011,1.024,0.085,1.52c0.198,1.01,0.443,1.982,0.201,3.048c-0.167,0.73-0.139,1.541-0.025,2.29
	c0.22,1.455,0.562,2.891,0.847,4.336c0.1,0.51,0.279,1.027,0.252,1.531c-0.041,0.81,0.205,1.447,0.77,1.996
	c0.13,0.126,0.285,0.27,0.329,0.432c0.52,1.924,1.226,3.733,2.719,5.159c0.585,0.56,1.072,1.236,1.543,1.901
	c0.519,0.732,0.867,1.609,1.474,2.247c0.706,0.741,1.736,1.183,2.409,1.944c1.464,1.66,3.392,2.646,5.187,3.819
	c1.044,0.683,2.255,1.104,3.349,1.72c2.1,1.183,3.998,2.691,6.499,3.141c2.648,0.474,5.22,1.389,7.871,1.838
	c2.507,0.426,5.074,0.663,7.615,0.665c1.75,0.002,3.491-0.703,5.255-0.791c1.774-0.089,3.325-0.819,4.979-1.252
	c0.492-0.129,0.92-0.495,1.407-0.645c1.157-0.353,2.423-0.459,3.478-0.994c2.168-1.097,4.254-2.364,6.316-3.647
	c1.16-0.723,2.211-1.62,3.309-2.44c1.188-0.887,2.683-1.567,3.475-2.725c0.79-1.151,1.912-1.796,2.813-2.733
	c1.242-1.293,1.985-2.831,2.764-4.377c0.396-0.789,0.734-1.608,1.161-2.378c0.431-0.775,0.962-1.495,1.406-2.262
	c0.575-0.991,1.112-2.005,1.659-3.012c0.072-0.133,0.134-0.275,0.175-0.421c0.258-0.875,0.492-1.754,0.761-2.625
	c0.506-1.634,1.031-3.261,1.545-4.892c0.348-1.101,0.959-2.166,0.372-3.381c-0.075-0.16,0.028-0.419,0.076-0.625
	c0.208-0.888,0.405-1.777,0.653-2.654c0.115-0.41,0.272-0.833,0.512-1.178c0.77-1.103,1.527-2.224,2.408-3.234
	c0.516-0.592,0.82-1.157,0.805-1.937c-0.004-0.201,0.203-0.42,0.345-0.606c0.761-1.004,1.497-2.051,1.786-3.277
	c0.488-2.084,0.733-4.229,1.283-6.296c0.68-2.563,0.071-4.879-1.168-7.034c-1.151-2.003-3.328-2.52-5.391-2.678
	c-1.551-0.117-3.191-0.605-4.754,0.132c-0.183,0.087-0.41,0.084-0.616,0.115c-2.388,0.365-4.796,0.631-7.154,1.137
	c-1.16,0.25-2.214,0.974-3.335,1.433c-1.141,0.467-2.332,0.815-3.457,1.316c-1.764,0.785-3.697,0.374-4.979-1.05
	c-0.545-0.604-1.2-1.144-1.893-1.569c-1.671-1.028-3.39-1.982-5.101-2.944c-0.961-0.541-1.922-1.087-2.924-1.543
	c-1.169-0.534-2.363-1.038-3.584-1.439c-1.338-0.44-2.717-0.758-4.081-1.116c-1.001-0.263-2.01-0.496-3.013-0.755
	c-0.437-0.113-0.861-0.274-1.298-0.389c-1.526-0.4-3.169-0.559-4.168-2.035c-0.219-0.323-0.387-0.688-0.645-0.973
	c-0.706-0.785-1.474-1.512-2.166-2.308c-0.82-0.945-1.562-1.957-2.378-2.905c-1.286-1.494-2.686-2.849-4.601-3.539
	c-0.973-0.35-1.901-0.918-2.899-1.088c-3.078-0.525-5.356,0.99-7.002,3.359c-1.031,1.485-1.69,3.244-2.417,4.922
	C73.931,18.907,74.414,20.521,75.646,21.24z M134.508,147.878c0.65-0.586,1.271-1.087,1.824-1.653
	c0.697-0.712,1.504-1.386,1.977-2.237c0.924-1.685,1.719-3.451,2.436-5.236c0.438-1.096,0.713-2.278,0.914-3.447
	c0.334-1.96-0.524-3.981,0.246-5.939c0.056-0.146-0.05-0.354-0.073-0.536c-0.169-1.359-0.972-2.636-0.498-4.096
	c0.094-0.283-0.071-0.729-0.252-1.013c-0.604-0.953-1.237-1.891-1.919-2.79c-1.51-1.988-2.994-4.005-4.632-5.885
	c-0.416-0.473-1.406-0.715-2.079-0.631c-0.809,0.103-0.771,1.015-0.719,1.694c0.057,0.758,0.223,1.509,0.308,2.267
	c0.188,1.696,0.31,3.402,0.552,5.092c0.222,1.536,0.614,3.048,0.069,4.601c-0.097,0.271,0.003,0.611,0.018,0.919
	c0.073,1.541,0.264,3.088,0.155,4.611c-0.041,0.555-0.793,1.059-1.221,1.586c-0.376-0.372-1.018-0.704-1.079-1.123
	c-0.196-1.301-0.182-2.631-0.231-3.951c-0.029-0.757,0.021-1.519-0.053-2.271c-0.061-0.61-0.299-1.202-0.373-1.812
	c-0.063-0.516,0.071-1.058-0.008-1.569c-0.385-2.497-0.764-4.998-1.238-7.478c-0.4-2.1-0.691-4.274-2.397-5.851
	c-0.413-0.383-0.829-0.761-1.266-1.115c-0.727-0.593-1.425-1.231-2.214-1.726c-1.085-0.68-2.21-1.316-3.383-1.826
	c-0.632-0.274-1.234-1.02-2.088-0.43c-0.709,0.491-1.506,0.131-1.45-0.735c0.07-1.09-0.702-1.582-1.265-2.255
	c-0.334-0.401-0.64-0.832-0.914-1.278c-0.394-0.643-0.616-1.732-1.135-1.889c-1.263-0.379-2.704-0.62-3.98-0.39
	c-2.582,0.467-5.146,0.27-7.716,0.212c-1.13-0.025-2.254-0.336-3.38-0.522c-2.884-0.474-5.779-0.891-8.646-1.452
	c-1.559-0.305-1.936-0.114-2.037,1.479c-0.062,0.979-0.153,1.96-0.931,2.713c-0.763,0.738-1.501,1.502-2.243,2.26
	c-0.163,0.166-0.298,0.499-0.456,0.505c-0.944,0.032-0.958,0.804-0.743,1.249c0.51,1.052,0.157,2.247,0.945,3.307
	c1.04,1.395,1.696,3.079,2.492,4.65c0.233,0.462,0.404,0.958,0.565,1.45c0.264,0.805-0.054,1.227-0.914,1.268
	c-0.199-0.263-0.396-0.53-0.601-0.793c-0.85-1.09-1.769-2.131-2.533-3.278c-0.593-0.889-1.017-1.894-1.474-2.868
	c-0.386-0.821-0.649-1.708-1.081-2.502c-0.56-1.029-1.479-1.274-2.569-0.833c-0.342,0.139-0.689,0.285-1.049,0.354
	c-1.302,0.249-2.38,0.754-3.152,1.94c-0.744,1.147-1.867,2.071-2.482,3.271c-0.826,1.609-1.333,3.387-1.96,5.096
	c-0.465,1.265-0.158,2.809-1.4,3.809c-0.149,0.122-0.098,0.512-0.108,0.779c-0.033,0.86-0.053,1.723-0.076,2.583
	c-0.021,0.835-0.05,1.67-0.058,2.503c-0.003,0.363,0.166,0.782,0.037,1.08c-0.6,1.378-0.622,2.834-0.607,4.275
	c0.013,1.342,0.264,2.681,0.367,4.024c0.146,1.914,0.228,3.835,0.39,5.748c0.058,0.677,0.279,1.339,0.41,2.01
	c0.079,0.411,0.1,0.838,0.2,1.243c0.124,0.506,0.332,0.993,0.451,1.499c0.35,1.48,0.588,2.994,1.03,4.445
	c0.434,1.426,1.063,2.794,1.611,4.186c0.043,0.112,0.129,0.209,0.177,0.32c0.187,0.433,0.379,0.866,0.544,1.31
	c0.32,0.86,0.553,1.761,0.955,2.581c0.343,0.703,0.858,1.321,1.322,1.963c0.729,1.005,1.333,2.168,2.253,2.958
	c1.205,1.035,2.562,1.873,3.35,3.326c0.084,0.151,0.344,0.216,0.53,0.305c1.073,0.515,2.134,1.055,3.227,1.525
	c2.074,0.891,4.106,1.963,6.267,2.549c3.014,0.814,6.131,1.248,9.272,1.363c0.976,0.038,1.952,0.113,2.926,0.084
	c1.117-0.032,2.235-0.129,3.346-0.26c1.138-0.133,2.307-0.203,3.385-0.549c1.529-0.486,2.982-1.212,4.48-1.798
	c0.287-0.111,0.679,0.04,0.959-0.077c0.672-0.284,1.316-0.642,1.958-0.996c0.628-0.349,1.259-0.696,1.845-1.104
	c0.47-0.328,0.84-0.803,1.316-1.114c0.507-0.327,1.055-0.655,1.551-0.925c1.927-1.05,2.694-3.63,5.185-3.864
	c0.026-0.003,0.048-0.036,0.071-0.057c1.141-1.133,1.969-2.435,2.249-4.043c0.136-0.775,0.271-1.55,0.392-2.328
	c0.119-0.777,0.23-1.557,0.328-2.338c0.048-0.39,0.01-0.794,0.083-1.176c0.34-1.74,0.72-3.471,1.05-5.209
	c0.057-0.29-0.06-0.611-0.076-0.917c-0.023-0.5-0.033-0.999-0.033-1.499c0-0.306,0.035-0.613,0.044-0.921
	c0.044-1.464-0.076-2.958,0.182-4.383c0.188-1.045,0.819-2.027,1.354-2.984c0.36-0.651,0.786-0.455,1.063,0.148
	c0.114,0.247,0.255,0.505,0.281,0.769c0.103,1.04,0.586,2.06,0.176,3.137c-0.062,0.158-0.009,0.367,0.012,0.551
	c0.105,1.047,0.357,2.102,0.295,3.136C133.057,146.064,133.287,147.219,134.508,147.878z M94.416,179.372
	c-0.085,0.088-0.17,0.176-0.255,0.266c-0.094,0.592-0.174,1.19-0.283,1.781c-0.107,0.577-0.27,1.146-0.352,1.727
	c-0.037,0.255-0.023,0.604,0.12,0.787c0.592,0.751,0.204,1.444-0.045,2.15c-0.145,0.408-0.47,0.809-0.458,1.207
	c0.044,1.427-0.228,2.749-0.927,3.999c-0.157,0.281-0.199,0.646-0.231,0.977c-0.141,1.471,0.841,2.401,2.454,3.217
	c0.636,0.322,1.228,0.223,1.937,0.052c0.69-0.167,0.812-0.841,1.368-0.996c1.267-0.348,2.292-1.011,2.848-2.232
	c0.17-0.375,0.29-0.841,0.233-1.238c-0.13-0.902-0.526-1.779-0.552-2.678c-0.027-0.979,0.208-1.976,0.392-2.951
	c0.077-0.41,0.337-0.781,0.481-1.181c0.076-0.21,0.172-0.474,0.11-0.664c-0.253-0.786-0.53-1.568-0.862-2.323
	c-0.322-0.73-0.313-1.359,0.074-2.104c0.478-0.916,0.461-2.457-1.039-2.727c-1.262-0.226-2.563-0.218-3.848-0.322
	c-0.859-0.067-1.732-0.07-2.571-0.241c-1.137-0.231-2.248-0.594-3.37-0.905c-1.584-0.442-3.171-0.882-4.75-1.342
	c-0.437-0.128-0.86-0.313-1.274-0.501c-0.975-0.448-2.008-0.814-2.896-1.399c-1.244-0.818-2.404-1.772-3.552-2.73
	c-1.069-0.889-2.101-1.832-3.104-2.804c-0.54-0.521-0.975-1.152-1.475-1.72c-0.283-0.322-0.559-0.683-0.913-0.903
	c-0.909-0.573-2.081,0.042-2.158,1.103c-0.071,0.976-0.11,1.953-0.189,2.927c-0.032,0.392-0.237,0.793-0.188,1.163
	c0.231,1.748,0.423,3.483-0.117,5.214c-0.06,0.193-0.007,0.429,0.025,0.64c0.324,2.139,0.648,4.279,0.992,6.412
	c0.074,0.464,0.216,0.915,0.343,1.369c0.18,0.642,0.416,1.271,0.554,1.921c0.216,1.012,0.152,2.156,0.625,3.013
	c0.349,0.636,0.35,1.163,0.4,1.78c0.042,0.511,0.188,1.017,0.287,1.523c0.058,0.293,0.167,0.587,0.169,0.883
	c0.005,0.812,0.018,1.597,0.686,2.214c0.127,0.117,0.094,0.422,0.114,0.64c0.06,0.67-0.099,1.304,0.384,1.983
	c0.764,1.074,1.946,1.119,2.933,1.28c2.527,0.419,5.105,0.541,7.662,0.773c0.677,0.061,1.36,0.059,2.032,0.146
	c1.635,0.211,3.258,0.134,4.867-0.176c0.647-0.126,0.781-0.593,0.407-1.114c-0.374-0.523-0.766-1.048-1.236-1.479
	c-1.073-0.986-1.142-1.38-0.432-2.66c0.228-0.412,0.274-0.92,0.458-1.361c0.614-1.48-0.072-3.077,0.791-4.683
	c0.807-1.503,0.64-3.53,0.887-5.331c0.05-0.364-0.082-0.797,0.067-1.099c0.287-0.587,0.637-1.199,1.125-1.603
	C93.358,178.889,93.986,179.251,94.416,179.372z M59.207,142.153c-0.06,0.061-0.12,0.12-0.179,0.178
	c0.128,0.252,0.21,0.545,0.395,0.745c0.514,0.56,1.084,1.066,1.605,1.62c0.484,0.513,0.9,1.104,1.709,1.122
	c0.459,0.009,1.192,0.23,1.319,0.038c0.285-0.434,0.411-1.081,0.347-1.611c-0.148-1.237-0.455-2.455-0.684-3.687
	c-0.129-0.688-0.254-1.386-0.332-2.083c-0.091-0.823-0.132-1.651-0.189-2.48c-0.066-0.953-0.209-1.911-0.172-2.865
	c0.062-1.598,0.232-3.194,0.367-4.791c0.052-0.612,0.117-1.224,0.203-1.831c0.284-1.991,0.841-3.989,0.792-5.973
	c-0.041-1.65,0.136-3.042,1.085-4.393c0.297-0.421,0.279-1.081,0.342-1.64c0.05-0.428-0.104-0.897,0.016-1.293
	c0.181-0.589,0.301-1.269-0.309-1.441c-0.632-0.178-1.441-0.088-2.064,0.156c-0.586,0.233-1.023,0.832-1.542,1.248
	c-0.479,0.384-1.012,0.702-1.463,1.113c-0.556,0.506-1.053,1.077-1.572,1.619c-0.172,0.177-0.479,0.354-0.486,0.539
	c-0.042,1.12-0.589,1.898-1.331,2.716c-0.722,0.8-0.921,1.937-0.682,3.068c0.035,0.167,0.043,0.412-0.052,0.523
	c-0.839,1-0.976,2.212-1.089,3.434c-0.073,0.797-0.171,1.591-0.231,2.389c-0.05,0.656-0.114,1.32-0.082,1.975
	c0.068,1.338,0.151,2.675,0.319,4.004c0.107,0.841,0.307,1.686,0.599,2.481c0.259,0.701,0.801,1.305,1.049,2.01
	C57.353,140.34,58.073,141.392,59.207,142.153z"/>
<path fill-rule="evenodd" clip-rule="evenodd" fill="#171717" d="M124.715,190.926c-0.386-0.063-0.854-0.038-1.2-0.231
	c-0.29-0.158-0.656-0.608-0.615-0.869c0.246-1.53,0.606-3.044,0.915-4.564c0.061-0.3,0.045-0.612,0.094-0.915
	c0.063-0.362,0.035-0.91,0.252-1.043c1.107-0.679,0.873-1.836,1.048-2.803c0.188-1.037,0.147-2.119,0.205-3.182
	c0.012-0.186,0-0.378,0.048-0.554c0.457-1.697,0.701-3.47,1.668-5.001c0.07-0.112,0.137-0.335,0.082-0.405
	c-0.672-0.838,0.018-1.499,0.305-2.188c0.051-0.12,0.698-0.159,0.725-0.098c0.23,0.583,0.557,1.207,0.531,1.805
	c-0.057,1.277-0.265,2.556-0.482,3.818c-0.279,1.616-0.535,3.245-0.978,4.821c-0.489,1.747-1.178,3.439-1.77,5.156
	c-0.032,0.092,0.038,0.215,0.044,0.322c0.057,0.867,0.26,1.759,0.125,2.594C125.529,188.694,125.079,189.752,124.715,190.926z"/>
<path fill-rule="evenodd" clip-rule="evenodd" fill="#171717" d="M95.669,90.557c-1.188-0.271-2.843-0.722-4.525-1.007
	c-2.045-0.35-3.434-1.724-4.906-2.961c-0.337-0.282-0.396-0.897-0.583-1.36c0.454-0.126,0.925-0.397,1.361-0.349
	c0.624,0.07,1.292,0.262,1.816,0.598c0.826,0.531,1.681,0.562,2.579,0.478c0.56-0.053,0.887-0.332,0.73-0.957
	c-0.03-0.118-0.094-0.253-0.063-0.354c0.331-1.07,0.687-2.134,1.02-3.204c0.259-0.832,0.474-1.676,0.755-2.499
	c0.111-0.325,0.302-0.658,0.542-0.899c0.822-0.832,0.729-1.77-0.153-2.547c-0.703-0.617-1.318-1.345-1.9-2.081
	c-0.569-0.724-0.41-1.504,0.034-2.253c0.124-0.209,0.297-0.431,0.313-0.657c0.058-0.889,0.474-1.339,1.386-1.317
	c0.132,0.004,0.292-0.099,0.399-0.196c1.334-1.2,2.905-1,4.439-0.661c0.794,0.177,1.534,0.616,2.282,0.973
	c0.236,0.112,0.465,0.306,0.615,0.519c0.9,1.282,0.859,3.813-0.253,4.905c-0.57,0.56-1.512,0.721-2.228,1.156
	c-0.768,0.467-1.609,0.932-2.16,1.607c-0.493,0.606-0.53,1.561-0.954,2.249c-1.015,1.649-1.376,3.517-1.938,5.318
	c-0.242,0.771,0.859,2.296,1.698,2.362c1.503,0.12,3.008,0.21,4.514,0.312c0.154,0.01,0.347-0.049,0.456,0.025
	c0.461,0.313,0.897,0.665,1.343,1.002c-0.255,0.273-0.477,0.592-0.774,0.806c-0.289,0.208-0.645,0.395-0.991,0.442
	C99.089,90.198,97.65,90.337,95.669,90.557z"/>
<path fill-rule="evenodd" clip-rule="evenodd" fill="#171717" d="M144.627,46.243c-0.613,0-1.26,0-1.904,0
	c-1.208-0.002-1.7-0.674-1.547-1.903c0.09-0.71-0.033-1.446-0.045-2.171c-0.008-0.504,0.115-1.032,0.003-1.509
	c-0.464-1.976-2.079-2.668-3.797-3.014c-1.378-0.278-2.819-0.246-4.231-0.356c-0.775-0.061-1.703-0.925-1.705-1.692
	c-0.002-0.297,0.206-0.666,0.434-0.882c1.027-0.982,2.316-1.188,3.681-1.134c0.586,0.023,1.175,0.034,1.758-0.014
	c2.534-0.205,4.524,0.928,6.135,2.689c0.968,1.058,1.822,2.272,1.669,3.92c-0.117,1.247,0.039,2.519-0.021,3.773
	C145.02,44.667,144.796,45.376,144.627,46.243z"/>
<path fill-rule="evenodd" clip-rule="evenodd" fill="#171717" d="M114,64.692c0.333-0.856,0.656-1.716,1.008-2.564
	c0.047-0.114,0.228-0.243,0.348-0.245c1.479-0.01,2.975-0.148,4.415,0.335c0.167,0.055,0.308,0.205,0.438,0.334
	c1.092,1.073,1.283,3.581,0.287,4.762c-0.291,0.343-0.799,0.591-1.254,0.695c-1.262,0.292-2.542,0.458-3.793-0.119
	c-0.82-0.377-1.115-1.08-1.198-1.904c-0.042-0.396-0.009-0.801-0.009-1.2C114.162,64.754,114.081,64.724,114,64.692z"/>
<path fill-rule="evenodd" clip-rule="evenodd" fill="#171717" d="M87.039,56.467c-2.202,0.087-3.37-1.73-3.284-3.752
	c0.048-1.101,1.733-2.885,3.311-2.654c2.194,0.32,3.644,1.267,3.419,3.874C90.343,55.587,89.442,56.576,87.039,56.467z"/>
<path fill-rule="evenodd" clip-rule="evenodd" fill="#171717" d="M105.391,135.909c-0.968,0.668-2.311,0.182-2.623-0.835
	c-0.436-1.42-0.997-2.774-2.231-3.726c-0.159-0.123-0.279-0.319-0.365-0.507c-0.637-1.386-1.73-2.388-2.978-3.144
	c-0.65-0.393-1.55-0.41-2.348-0.507c-1.041-0.129-1.348-0.357-1.399-1.431c-0.063-1.273-0.847-1.994-1.802-2.669
	c-1.133-0.799-2.226-1.66-3.284-2.555c-0.225-0.19-0.223-0.647-0.325-0.983c0.317-0.062,0.701-0.27,0.94-0.159
	c0.999,0.458,2.274,0.795,2.828,1.603c0.476,0.692,0.976,1.07,1.629,1.337c1.007,0.415,2.061,0.714,3.091,1.071
	c0.401,0.141,0.793,0.306,1.189,0.458c-0.092,0.064-0.185,0.128-0.277,0.192c0.347,0.695,0.833,1.36,1.006,2.098
	c0.276,1.175,1.25,1.772,1.883,2.643c0.961,1.324,1.979,2.604,2.961,3.912c0.144,0.19,0.221,0.436,0.318,0.659
	c0.205,0.482,0.331,1.016,0.622,1.436C104.51,135.216,104.96,135.512,105.391,135.909z"/>
<path fill-rule="evenodd" clip-rule="evenodd" fill="#171717" d="M106.229,116.929c-0.172,0.217-0.283,0.469-0.474,0.576
	c-0.535,0.296-1.156,0.461-1.643,0.815c-0.366,0.267-0.648,0.715-0.846,1.137c-0.576,1.23-1.729,1.802-2.801,2.401
	c-0.369,0.208-1.187,0.086-1.506-0.205c-0.452-0.416,0.021-0.855,0.43-1.194c0.915-0.754,1.793-1.554,2.711-2.307
	c0.198-0.161,0.508-0.182,0.754-0.295c0.21-0.097,0.525-0.191,0.581-0.36c0.518-1.563,2.004-2.21,3.053-3.261
	c0.956-0.955,1.894-2.166,3.083-2.602c1.553-0.568,2.018-2.183,3.392-2.799c0.366,1.278-0.062,2.146-1.055,2.901
	c-0.722,0.55-1.213,1.391-1.856,2.053c-0.521,0.536-1.111,1.006-1.682,1.489c-0.42,0.356-0.857,0.69-1.293,1.025
	C106.777,116.536,106.47,116.752,106.229,116.929z"/>
<path fill-rule="evenodd" clip-rule="evenodd" fill="#171717" d="M97.336,161.23c-0.415,1.632-0.621,1.873-1.715,1.884
	c-0.702,0.007-1.369-0.097-1.646-0.879c-0.216-0.612,0.194-2.057,0.704-2.25C95.92,159.518,96.704,160.211,97.336,161.23z"/>
<path fill-rule="evenodd" clip-rule="evenodd" fill="#171717" d="M96.849,151.604c0.004,0.895-0.875,1.966-1.622,1.972
	c-0.578,0.007-1.343-0.993-1.359-1.775c-0.013-0.6,0.807-1.324,1.5-1.327C96.317,150.465,96.846,150.868,96.849,151.604z"/>
<path fill-rule="evenodd" clip-rule="evenodd" fill="#171717" d="M92.276,129.18c-0.065,0.188-0.072,0.258-0.108,0.303
	c-0.591,0.718-1.117,1.505-1.801,2.12c-0.463,0.414-1.202-0.014-1.31-0.639c-0.167-0.97,1.613-2.66,2.534-2.361
	C91.869,128.693,92.076,129.005,92.276,129.18z"/>
<path fill-rule="evenodd" clip-rule="evenodd" fill="#171717" d="M95.383,144.197c-0.183-0.059-0.591-0.097-0.855-0.31
	c-0.241-0.194-0.534-0.698-0.443-0.858c0.223-0.385,0.629-0.691,1.016-0.946c0.174-0.115,0.479-0.029,0.725-0.035
	c0.517-0.018,1.208-0.513,1.347,0.5c0.121,0.87-0.322,1.454-1.236,1.608C95.815,144.175,95.69,144.175,95.383,144.197z"/>
</svg>
